# xmcd CD database file
#
# Track frame offsets:
#	187
#	18780
#	42715
#	67967
#	91687
#	138440
#	185120
#	219447
#
# Disc length: 3622 seconds
#
# Revision: 2
# Processed by: cddbd v1.5.2PL0 Copyright (c) Steve Scherf et al.
# Submitted via: CDex 1.70beta2
#
DISCID=6b0e2408
DTITLE=Chopin - Dang Thai Son(p) 1994 Victor
DYEAR=1994
DGENRE=Classical
TTITLE0=Impromptu No.1 in A flat major Op.29
TTITLE1=Impromptu No.2 in F sharp major Op.36
TTITLE2=Impromptu No.3 in G flat major Op.51
TTITLE3=Impromptu No.4 in A sharp minor Op.66 Fantasie Impromptu
TTITLE4=Scherzo No.1 in B minor Op.20
TTITLE5=Scherzo No.2 in B flat minor Op.31
TTITLE6=Scherzo No.3 in C sharp minor Op.39
TTITLE7=Scherzo No.4 in E major Op.54
EXTD=YEAR: 1994
EXTT0=
EXTT1=
EXTT2=
EXTT3=
EXTT4=
EXTT5=
EXTT6=
EXTT7=
PLAYORDER=
